<?xml version="1.0" encoding="UTF-8"?>
<!DOCTYPE svg PUBLIC "-//W3C//DTD SVG 1.1//EN" "http://www.w3.org/Graphics/SVG/1.1/DTD/svg11.dtd">
<!-- Creator: CorelDRAW (Versão OEM) -->
<svg xmlns="http://www.w3.org/2000/svg" xml:space="preserve" width="2480px" height="3508px" version="1.1" style="shape-rendering:geometricPrecision; text-rendering:geometricPrecision; image-rendering:optimizeQuality; fill-rule:evenodd; clip-rule:evenodd"
viewBox="0 0 2480 3507.43"
 xmlns:xlink="http://www.w3.org/1999/xlink"
 xmlns:xodm="http://www.corel.com/coreldraw/odm/2003">
 <defs>
  <style type="text/css">
   <![CDATA[
    .fil0 {fill:url(#id0);fill-rule:nonzero}
   ]]>
  </style>
  <linearGradient id="id0" gradientUnits="userSpaceOnUse" x1="1032.04" y1="1350.63" x2="1446.28" y2="2156.92">
   <stop offset="0" style="stop-opacity:1; stop-color:#85B7E6"/>
   <stop offset="1" style="stop-opacity:1; stop-color:#F782BA"/>
  </linearGradient>
 </defs>
 <g id="Camada_x0020_1">
  <metadata id="CorelCorpID_0Corel-Layer"/>
  <g id="_1816953090960">
   <g>
    <path class="fil0" d="M451.35 1493.19c-13.7,3.7 -45.66,35.66 -54.79,55.01l-7.39 15 0 166.55c0.21,181.12 1.3,211.34 8.69,231.35 9.35,24.78 38.05,46.53 67.62,51.09 17.83,2.83 169.38,3.05 200.47,0.22 25.01,-2.17 35.23,-5.65 50.66,-17.39l9.13 -6.96 10.01 7.83c5.87,4.35 16.96,9.78 25.44,12.39 13.69,4.13 18.91,4.57 59.14,3.7 39.13,-0.87 45.22,-1.53 56.53,-5.87l12.61 -5.01 14.57 5.88c35.22,14.35 87.18,7.6 112.19,-14.57 15.65,-13.48 21.09,-26.31 22.39,-52.19 0.66,-11.74 1.96,-21.3 2.83,-21.3 0.65,0 6.96,7.61 13.48,16.96 6.74,9.13 21.74,26.52 33.7,38.48 33.05,33.92 47.84,39.36 101.54,37.4 45.23,-1.31 48.27,-2.61 78.93,-32.62l24.35 -23.7 5.43 11.96c18.49,41.75 79.58,59.36 126.76,36.31 16.31,-8.04 31.75,-26.09 35.88,-41.74 1.3,-5.87 3.26,-10.44 3.91,-10.44 0.87,0 3.7,2.39 6.53,5.44 8.26,8.69 35.87,26.96 53.05,34.79 40.44,18.69 83.71,26.09 143.72,24.35 76.75,-2.18 128.28,-19.14 168.51,-54.79 10,-8.92 18.91,-16.31 19.78,-16.31 0.65,0 1.96,4.35 2.61,9.78 3.04,21.09 17.18,37.62 42.62,49.79l14.35 6.74 55.44 0 55.45 0 12.39 -6.08c16.96,-8.27 33.26,-23.49 37.4,-34.79 3.26,-8.7 5.65,-26.53 10.22,-75.45 3.26,-33.7 1.3,-308.31 -2.4,-324.4 -2.39,-11.09 -4.35,-13.92 -18.26,-27.62 -21.53,-20.87 -25,-21.74 -92.63,-22.39 -61.09,-0.65 -70.22,0.87 -88.49,15.44l-10.65 8.26 -8.27 -7.18c-16.95,-14.56 -26.09,-16.3 -85.88,-16.3 -32.4,0.21 -56.31,1.08 -61.31,2.61 -11.31,3.47 -27.83,16.52 -35.88,28.26 -11.74,17.39 -12.61,27.18 -12.61,138.5 -0.22,97.19 -0.43,100.89 -4.35,103.93 -5.43,3.92 -10.22,3.92 -15.65,0 -3.92,-3.04 -4.13,-6.09 -3.48,-91.97 0.43,-54.14 -0.22,-98.06 -1.74,-112.63 -2.18,-21.96 -3.05,-24.78 -10.22,-35.44 -10.44,-15.22 -19.79,-23.05 -33.92,-28.26 -10.43,-3.92 -17.83,-4.57 -64.79,-5.22 -46.97,-0.44 -54.36,-0.22 -64.58,3.48 -16.52,5.65 -37.83,25.87 -44.35,42.18 -5.01,12.39 -5.01,12.61 -5.01,125.89 0,62.4 -0.65,113.93 -1.3,114.58 -0.65,0.87 -4.13,0.44 -7.39,-0.87 -10.66,-4.13 -38.92,-5.22 -50.01,-2.17 -5.44,1.52 -10.44,2.17 -11.09,1.52 -0.65,-0.65 1.74,-10.87 5.22,-22.83 3.69,-11.74 7.61,-28.7 8.91,-37.61 3.92,-28.05 6.74,-55.23 6.74,-66.54 0,-22.83 -20.87,-50.66 -47.61,-63.05 -10.66,-5 -14.14,-5.65 -43.49,-5.65 -28.48,-0.22 -32.83,0.21 -42.83,4.56 -6.09,2.83 -16.09,10 -22.18,16.31 -12.18,12.61 -15.87,21.52 -24.57,59.57 -2.83,12.4 -5.87,22.4 -6.74,22.4 -1.96,0 -3.04,-4.13 -8.48,-30.44 -3.69,-19.35 -5.65,-24.57 -12.61,-33.7 -10,-13.27 -28.48,-27.84 -41.75,-33.05 -7.17,-2.83 -16.09,-3.7 -35.87,-3.7 -29.35,0 -38.49,3.05 -53.71,16.96l-8.04 7.39 -10.44 -8.69c-18.48,-15.66 -23.04,-16.96 -63.49,-16.96 -42.61,0 -46.96,1.52 -65.44,20.87 -14.57,15.44 -19.35,24.13 -21.53,38.92l-1.52 10.87 -1.52 -8.7c-3.7,-20.22 -15.87,-37.61 -36.75,-51.96 -14.78,-10.22 -28.04,-12.4 -62.62,-10.22 -32.39,1.96 -38.7,4.56 -56.74,22.83 -19.57,20.22 -20.22,23.05 -19.35,103.93l0.43 66.97 -42.4 0 -42.61 0 0 -130.02 0 -129.81 -6.31 -10.87c-7.83,-13.7 -25.66,-30.44 -38.92,-36.53 -9.35,-4.35 -14.35,-4.78 -53.7,-5.22 -25.88,-0.21 -46.97,0.66 -51.97,1.96l0 0zm96.75 35.44c5.22,3.7 12.4,10.87 16.1,16.09l6.52 9.35 1.09 140.46 1.08 140.68 56.53 1.08c62.62,1.31 64.15,1.52 73.06,15.88 3.91,6.3 4.13,10.21 3.7,38.92 -0.66,30.65 -0.87,32.17 -6.09,37.61 -12.61,13.48 -8.05,13.05 -127.2,12.39l-108.71 -0.65 -9.57 -5.65c-5.22,-3.05 -13.48,-9.13 -18.26,-13.48 -16.53,-14.79 -15.44,-4.78 -16.31,-180.47 -0.43,-106.32 0.22,-161.11 1.74,-168.29 3.91,-18.7 31.31,-46.53 48.7,-49.57 5,-0.87 22.4,-1.31 38.71,-1.31 29.35,0.44 29.78,0.44 38.91,6.96l0 0zm1049.75 30.01c17.83,11.74 17.39,9.78 17.61,129.8 0,97.84 0.43,106.11 4.13,114.37 8.48,18.7 31.31,29.79 50.44,24.79 11.96,-3.27 28.92,-19.79 30.88,-30.44 0.87,-3.92 1.52,-53.27 1.52,-109.81l0 -102.62 5 -9.57c2.83,-5.22 9.35,-12.61 14.35,-16.09l9.35 -6.52 51.31 0c58.93,0 60.23,0.22 73.28,18.05l7.61 10.22 -0.66 117.41c-0.43,114.15 -0.65,117.84 -5.43,134.8 -6.52,22.83 -17.83,45.66 -28.7,58.27 -11.74,13.27 -40.22,32.18 -61.32,40.44 -38.7,15.66 -89.79,22.4 -135.89,18.05 -96.32,-9.13 -150.24,-46.31 -170.68,-117.85 -4.57,-15.65 -4.78,-21.52 -5.43,-130.45 -0.87,-125.68 -1.09,-125.24 12.39,-138.07 10.43,-10 21.96,-11.74 74.14,-11.3l46.97 0.43 9.13 6.09 0 0zm428.55 -5c10.22,2.82 22.39,13.26 27.4,23.26 3.69,7.83 3.91,16.31 3.26,170.25 -0.44,135.46 -1.09,163.29 -3.7,169.59 -4.56,10.66 -15.65,21.31 -24.79,23.92 -10.65,3.04 -98.93,2.83 -109.8,-0.22 -11.52,-3.26 -23.7,-16.09 -26.74,-28.26 -1.52,-6.31 -2.61,-62.41 -2.83,-167.42l-0.43 -157.86 4.78 -10.22c5.65,-11.3 15,-19.35 26.31,-22.61 10,-2.83 96.75,-3.26 106.54,-0.43l0 0zm-1043.22 90.45c3.7,1.95 11.52,8.04 17.39,13.26l10.44 10 0 119.59c0,117.63 0,119.8 -4.57,129.37 -8.69,17.61 -33.26,27.83 -63.05,26.09 -16.96,-1.09 -19.13,-1.96 -38.27,-15.87 -1.95,-1.53 -9.78,0.21 -26.31,5.87 -30.22,10.43 -35.87,11.09 -72.4,9.35l-30.44 -1.74 -13.48 -8.92c-7.39,-4.78 -18.48,-14.13 -24.79,-20.44 -10.87,-11.3 -11.09,-11.74 -13.48,-30.44 -1.52,-10.43 -3.48,-25.44 -4.56,-33.48 -1.31,-8.05 -2.18,-50.44 -2.18,-94.15 0,-89.14 -0.65,-85.23 16.09,-100.67l10 -9.13 28.27 0c30,0 39.35,2.39 48.27,12.39 9.78,10.88 10.43,16.09 10.43,94.37l0 74.14 7.18 7.18c15.44,15.43 51.1,11.09 58.27,-7.18 1.74,-3.91 1.96,-22.18 1.09,-57.62 -0.87,-28.48 -0.87,-62.62 0,-76.1l1.52 -24.35 10.65 -11.3c6.09,-6.09 13.05,-11.75 15.44,-12.18 2.61,-0.44 15.44,-1.09 28.27,-1.31 17.83,-0.21 25.22,0.66 30.22,3.27l0 0zm335.06 2.82c14.35,8.92 22.61,20.44 23.91,34.14 1.74,16.09 -9.35,79.14 -18.48,106.97 -8.48,25.88 -33.48,76.76 -48.48,99.37 -13.27,19.78 -32.84,39.79 -46.32,46.53 -11.09,5.65 -40.44,9.78 -56.53,8.04 -11.96,-1.3 -27.39,-8.91 -46.96,-22.83 -21.09,-15 -47.4,-55.22 -64.36,-98.06 -13.05,-33.05 -30.22,-119.8 -27.18,-136.76 2.39,-12.39 9.79,-23.7 21.74,-32.4l10.88 -8.04 24.13 0c23.26,0 24.35,0.22 33.48,6.52 13.48,9.35 21.09,22.18 24.14,41.53 1.3,8.91 3.48,16.09 4.35,16.09 1.08,0 1.95,2.83 1.95,6.31 0,3.47 3.92,18.04 8.7,32.61 4.78,14.35 8.7,27.61 8.7,29.14 0,3.91 9.78,34.78 12.61,39.78 1.96,3.27 2.61,2.4 4.78,-5.65 1.31,-5.43 8.26,-28.48 15.44,-51.09 18.26,-57.84 21.09,-68.28 22.18,-78.71 1.95,-16.53 16.52,-33.7 32.61,-37.84 3.7,-0.86 16.74,-1.52 28.92,-1.08 18.26,0.43 23.26,1.3 29.79,5.43l0 0zm-453.56 132.2c-0.22,15.44 -0.65,2.83 -0.65,-27.61 0,-30.44 0.43,-43.06 0.65,-27.84 0.44,15.44 0.44,40.23 0,55.45l0 0zm544.88 59.57c20,10.01 29.78,25.01 31.52,47.62 0.87,12.18 0.22,15.87 -4.56,25.01 -5.66,11.08 -12.4,18.26 -24.79,26.74 -5.65,4.13 -9.78,4.78 -27.61,4.78 -13.05,0 -23.7,-1.08 -28.27,-3.04 -9.13,-3.91 -24.57,-17.61 -28.7,-25.66 -4.56,-8.7 -6.31,-31.96 -3.26,-41.53 4.13,-11.96 14.35,-24.78 24.57,-30.22 12.39,-6.52 17.39,-7.61 36.09,-8.04 12.18,-0.22 18.05,0.86 25.01,4.34l0 0zm-353.54 35.66c21.09,41.31 49.79,69.15 91.32,88.5 13.7,6.52 14.35,6.52 42.61,5.65 27.83,-0.65 29.14,-1.09 45.01,-8.7 8.92,-4.35 19.57,-10 23.48,-12.61 11.09,-7.39 8.27,-3.04 -8.91,13.92 -21.09,21.09 -29.14,23.91 -68.93,24.13 -27.83,0 -30,-0.22 -41.96,-6.09 -15.44,-7.61 -45.66,-35.87 -61.97,-58.05 -29.13,-39.14 -33.05,-45.88 -33.05,-56.31 0.22,-9.57 0.22,-9.79 3.48,-5.66 1.96,2.4 5.87,9.14 8.92,15.22l0 0zm801.44 26.75c-0.44,2.39 -11.53,14.35 -24.35,26.74 -33.27,32.4 -61.54,46.75 -110.89,56.31 -29.36,5.87 -79.36,7.83 -106.76,4.57 -56.53,-6.96 -98.28,-25 -131.11,-56.53 -13.26,-12.83 -16.96,-17.83 -16.31,-21.53 0.66,-4.56 1.96,-3.91 16.75,9.35 28.91,26.09 52.61,38.05 95.66,48.05 18.7,4.57 30.88,5.66 64.36,6.74 64.14,1.96 105.67,-5.87 151.12,-28.04 20,-9.79 25,-13.48 41.31,-30.23 10.22,-10.43 19.13,-18.91 20,-19.13 0.65,-0.22 0.87,1.52 0.22,3.7l0 0zm-1113.23 50.66c2.6,2.61 10.22,7.17 16.74,10.22 11.09,5.22 14.78,5.87 48.48,6.52 39.79,1.09 55.01,-0.87 76.32,-9.57 12.83,-5.21 13.05,-5.21 17.4,-1.08 9.13,8.48 19.56,11.09 45.44,11.09 26.52,0 40.22,-2.83 51.31,-10.66l6.52 -4.78 -2.17 6.74c-1.3,3.69 -6.52,10 -11.52,14.13 -8.05,6.52 -11.53,7.83 -28.7,10 -23.27,3.05 -41.75,0.65 -57.62,-7.82 -5.87,-3.05 -12.4,-5.44 -14.79,-5.44 -2.39,0 -11.96,3.04 -21.31,6.96 -16.74,6.74 -17.61,6.74 -55.01,6.96l-38.05 0.21 -14.13 -6.95c-17.83,-8.92 -28.26,-18.27 -28.26,-25.44 0,-6.96 3.04,-7.18 9.35,-1.09l0 0zm-309.19 2.82c3.48,3.05 11.74,7.4 18.48,10.01 11.96,4.35 15.01,4.56 122.42,3.91l110.02 -0.65 9.34 -5c5.22,-2.83 10.01,-4.57 10.66,-3.92 2.39,2.4 -7.39,15.44 -14.57,19.79 -7.39,4.13 -11.52,4.35 -116.32,5 -97.19,0.65 -109.59,0.22 -118.07,-3.04 -11.09,-4.13 -23.26,-14.14 -27.83,-22.83 -5.22,-10.22 -3.69,-11.09 5.87,-3.27zm902.11 3.7c12.18,9.35 21.75,11.31 48.71,10 25.65,-1.08 34.13,-3.26 42.18,-10.65 7.39,-7.18 6.08,0.22 -1.96,10.43 -15.65,19.79 -57.18,23.7 -84.14,8.05 -9.57,-5.44 -17.83,-16.09 -17.83,-23.05 0,-4.35 1.3,-3.91 13.04,5.22l0 0zm563.14 0.44c13.92,9.34 20,10.21 72.62,10.21 48.27,0 50.66,-0.21 63.06,-5.43 7.17,-2.83 13.26,-5 13.48,-4.78 0.43,0.21 -1.31,3.69 -3.92,7.61 -6.52,10.65 -18.7,15.65 -42.83,18.26 -22.61,2.39 -72.4,0.65 -85.88,-2.83 -9.14,-2.39 -24.14,-15.65 -26.31,-23.26 -1.74,-6.09 0.43,-6.09 9.78,0.22l0 0z"/>
   </g>
  </g>
 </g>
</svg>
